{"glyphs":{"a":{"ha":754,"x_min":63,"x_max":678,"o":"m 654 235 q 678 0 654 76 l 554 0 q 543 126 546 58 q 454 22 518 60 q 301 -17 390 -17 q 128 39 193 -17 q 63 188 63 94 q 88 283 63 240 q 160 351 113 326 q 255 385 200 372 q 394 408 310 399 l 535 424 l 535 435 q 497 572 535 531 q 376 614 460 614 q 260 580 303 614 q 211 485 217 546 l 85 485 q 171 649 92 588 q 375 711 250 711 q 588 642 521 711 q 654 422 654 574 l 654 235 m 328 81 q 478 141 422 81 q 535 303 535 201 l 535 338 l 339 310 q 223 270 258 299 q 188 190 188 242 q 225 110 188 139 q 328 81 263 81 z "},"b":{"ha":792,"x_min":104,"x_max":736,"o":"m 443 -17 q 303 20 363 -17 q 215 119 244 57 l 194 0 l 104 0 l 104 1007 l 222 1007 l 222 572 q 310 673 251 635 q 450 711 369 711 q 601 665 536 711 q 701 535 665 618 q 736 347 736 453 q 700 158 736 240 q 597 29 664 75 q 443 -17 531 -17 m 411 88 q 558 158 504 88 q 611 347 611 228 q 559 537 611 467 q 413 607 507 607 q 271 542 322 607 q 219 363 219 476 l 219 326 q 270 152 219 217 q 411 88 321 88 z "},"c":{"ha":736,"x_min":63,"x_max":681,"o":"m 388 -17 q 217 28 290 -17 q 103 155 143 72 q 63 347 63 238 q 150 614 63 517 q 388 711 238 711 q 589 648 513 711 q 681 471 665 585 l 560 453 q 503 568 549 528 q 385 608 458 608 q 240 540 292 608 q 188 349 188 471 q 241 155 188 224 q 389 86 294 86 q 506 126 461 86 q 567 243 551 165 l 679 221 q 583 46 660 108 q 388 -17 506 -17 z "},"d":{"ha":792,"x_min":56,"x_max":688,"o":"m 343 -17 q 193 28 258 -17 q 92 156 128 74 q 56 347 56 239 q 94 535 56 453 q 201 665 132 618 q 357 711 269 711 q 482 682 429 711 q 569 590 535 653 l 569 1007 l 688 1007 l 688 0 l 576 0 l 576 129 q 343 -17 507 -17 m 375 88 q 519 153 465 88 q 572 331 572 219 l 572 363 q 519 542 572 476 q 375 607 465 607 q 233 538 285 607 q 181 347 181 469 q 233 156 181 225 q 375 88 285 88 z "},"e":{"ha":749,"x_min":63,"x_max":686,"o":"m 686 313 l 181 313 q 240 149 182 210 q 393 88 297 88 q 511 119 461 88 q 585 213 561 151 l 682 169 q 569 31 644 78 q 385 -17 493 -17 q 147 76 232 -17 q 63 339 63 168 q 147 612 63 513 q 383 711 232 711 q 608 631 529 711 q 686 394 686 550 l 686 313 m 567 408 q 518 564 567 510 q 381 618 469 618 q 235 563 288 618 q 181 408 183 507 l 567 408 z "},"f":{"ha":485,"x_min":28,"x_max":457,"o":"m 457 694 l 457 597 l 276 597 l 276 0 l 158 0 l 158 597 l 28 597 l 28 694 l 158 694 l 158 801 q 215 957 158 899 q 365 1015 271 1015 q 457 1006 418 1015 l 457 904 q 381 911 413 911 q 301 881 326 911 q 276 786 276 851 l 276 694 l 457 694 z "},"g":{"ha":715,"x_min":42,"x_max":701,"o":"m 485 129 q 701 -61 701 129 q 660 -179 701 -128 q 542 -259 619 -231 q 360 -287 465 -287 q 123 -239 204 -287 q 42 -100 42 -190 q 71 -12 42 -50 q 153 46 100 26 q 69 165 69 79 q 94 242 69 208 q 168 290 118 275 q 108 369 129 322 q 88 472 88 417 q 160 645 88 579 q 349 711 232 711 q 460 693 406 711 q 511 787 469 751 q 619 822 553 822 q 665 817 644 822 l 665 714 q 615 719 638 719 q 522 660 536 719 q 589 578 565 626 q 613 472 613 531 q 579 347 613 401 q 486 261 546 292 q 349 231 426 231 q 236 250 288 231 q 174 190 174 238 q 203 145 174 161 q 288 129 232 129 l 485 129 m 349 621 q 240 579 282 621 q 199 472 199 538 q 240 363 199 406 q 349 321 282 321 q 459 363 417 321 q 501 471 501 404 q 459 579 501 538 q 349 621 417 621 m 360 -190 q 526 -156 468 -190 q 583 -61 583 -121 q 556 3 583 -18 q 478 25 529 25 l 283 25 q 190 -5 222 25 q 157 -76 157 -35 q 360 -190 157 -190 z "},"h":{"ha":782,"x_min":104,"x_max":692,"o":"m 104 0 l 104 1007 l 222 1007 l 222 563 q 456 711 288 711 q 631 639 571 711 q 692 426 692 567 l 692 0 l 574 0 l 574 418 q 415 610 574 610 q 273 544 324 610 q 222 361 222 479 l 222 0 l 104 0 z "},"i":{"ha":326,"x_min":78,"x_max":249,"o":"m 222 0 l 104 0 l 104 694 l 222 694 l 222 0 m 164 818 q 103 842 128 818 q 78 901 78 867 q 103 962 78 938 q 164 986 128 986 q 224 962 199 986 q 249 901 249 938 q 224 842 249 867 q 164 818 199 818 z "},"j":{"ha":340,"x_min":-28,"x_max":263,"o":"m 58 -281 q -28 -272 3 -281 l -28 -171 q 42 -174 11 -174 q 101 -149 83 -174 q 118 -56 118 -125 l 118 694 l 236 694 l 236 -68 q 58 -281 236 -281 m 178 818 q 117 842 142 818 q 92 901 92 867 q 117 962 92 938 q 178 986 142 986 q 238 962 213 986 q 263 901 263 938 q 238 842 263 867 q 178 818 213 818 z "},"k":{"ha":728,"x_min":104,"x_max":714,"o":"m 714 0 l 568 0 l 354 342 l 222 213 l 222 0 l 104 0 l 104 1007 l 222 1007 l 222 351 l 542 694 l 697 694 l 439 428 l 714 0 z "},"l":{"ha":326,"x_min":104,"x_max":222,"o":"m 104 1007 l 222 1007 l 222 0 l 104 0 l 104 1007 z "},"m":{"ha":1143,"x_min":104,"x_max":1053,"o":"m 104 694 l 215 694 l 215 572 q 419 711 274 711 q 544 675 493 711 q 621 571 596 639 q 836 711 689 711 q 996 643 939 711 q 1053 451 1053 575 l 1053 0 l 935 0 l 935 443 q 799 610 935 610 q 680 557 722 610 q 638 408 638 504 l 638 0 l 519 0 l 519 447 q 485 567 519 525 q 385 610 450 610 q 266 554 310 610 q 222 403 222 499 l 222 0 l 104 0 l 104 694 z "},"n":{"ha":782,"x_min":104,"x_max":692,"o":"m 104 0 l 104 694 l 215 694 l 215 556 q 309 673 250 635 q 453 711 368 711 q 631 640 571 711 q 692 429 692 569 l 692 0 l 574 0 l 574 421 q 415 610 574 610 q 274 544 325 610 q 222 361 222 478 l 222 0 l 104 0 z "},"o":{"ha":785,"x_min":63,"x_max":722,"o":"m 392 -17 q 219 27 293 -17 q 103 153 144 71 q 63 347 63 236 q 103 541 63 458 q 219 667 144 624 q 392 711 293 711 q 566 667 492 711 q 681 542 640 624 q 722 347 722 460 q 681 153 722 235 q 566 27 640 71 q 392 -17 492 -17 m 392 86 q 544 153 490 86 q 597 347 597 219 q 544 542 597 475 q 392 608 490 608 q 241 542 294 608 q 188 347 188 475 q 241 153 188 219 q 392 86 294 86 z "},"p":{"ha":792,"x_min":104,"x_max":736,"o":"m 104 -271 l 104 694 l 215 694 l 215 565 q 310 674 250 636 q 449 711 369 711 q 599 666 533 711 q 700 538 664 621 q 736 347 736 456 q 699 155 736 238 q 594 28 661 72 q 442 -17 528 -17 q 306 19 364 -17 q 222 110 247 56 l 222 -271 l 104 -271 m 414 88 q 558 156 506 88 q 611 347 611 225 q 560 538 611 469 q 418 607 508 607 q 273 542 326 607 q 219 365 219 478 l 219 332 q 272 153 219 219 q 414 88 325 88 z "},"q":{"ha":792,"x_min":56,"x_max":688,"o":"m 569 119 q 482 20 539 57 q 347 -17 425 -17 q 195 28 261 -17 q 92 155 129 72 q 56 347 56 238 q 94 538 56 456 q 202 666 133 621 q 357 711 271 711 q 488 680 435 711 q 575 583 540 649 l 600 694 l 688 694 l 688 -271 l 569 -271 l 569 119 m 376 88 q 519 152 465 88 q 572 326 572 217 l 572 365 q 519 541 572 475 q 375 607 467 607 q 233 539 285 607 q 181 347 181 471 q 233 157 181 226 q 376 88 285 88 z "},"r":{"ha":475,"x_min":104,"x_max":456,"o":"m 214 535 q 296 663 240 614 q 428 711 351 711 q 456 710 447 711 l 456 594 l 447 594 q 292 539 344 594 q 235 438 247 496 q 222 296 222 379 l 222 0 l 104 0 l 104 694 l 214 694 l 214 535 z "},"s":{"ha":681,"x_min":49,"x_max":625,"o":"m 354 -17 q 148 39 228 -17 q 49 197 68 94 l 168 218 q 231 116 182 151 q 358 81 279 81 q 467 110 428 81 q 507 186 507 140 q 482 253 507 231 q 406 283 457 275 l 263 308 q 123 374 171 325 q 75 503 75 424 q 108 610 75 563 q 201 684 140 657 q 343 711 261 711 q 538 661 463 711 q 625 524 614 611 l 508 497 q 452 583 496 551 q 338 615 408 615 q 229 588 268 615 q 190 508 190 560 q 217 443 190 467 q 299 410 244 419 l 442 385 q 579 320 535 367 q 624 196 624 274 q 553 42 624 100 q 354 -17 482 -17 z "},"t":{"ha":494,"x_min":21,"x_max":451,"o":"m 451 597 l 271 597 l 271 214 q 297 126 271 154 q 376 99 322 99 q 451 108 417 99 l 451 0 q 346 -12 406 -12 q 195 45 238 -12 q 153 210 153 103 l 153 597 l 21 597 l 21 694 l 153 694 l 153 864 l 271 899 l 271 694 l 451 694 l 451 597 z "},"u":{"ha":771,"x_min":90,"x_max":667,"o":"m 333 -17 q 148 53 206 -17 q 90 254 90 124 l 90 694 l 208 694 l 208 268 q 247 131 208 178 q 356 85 285 85 q 496 151 443 85 q 549 324 549 217 l 549 694 l 667 694 l 667 0 l 556 0 l 556 133 q 469 25 531 67 q 333 -17 408 -17 z "},"v":{"ha":657,"x_min":7,"x_max":650,"o":"m 265 0 l 7 694 l 135 694 l 297 224 q 326 119 317 167 l 331 119 q 358 224 339 158 l 522 694 l 650 694 l 392 0 l 265 0 z "},"w":{"ha":1019,"x_min":26,"x_max":993,"o":"m 226 0 l 26 694 l 149 694 l 278 197 q 293 117 286 157 l 296 117 q 305 160 299 135 q 314 197 311 185 l 446 694 l 574 694 l 706 197 q 715 160 708 185 q 724 117 721 135 l 726 117 q 742 197 733 157 l 871 694 l 993 694 l 793 0 l 664 0 l 526 501 q 511 578 517 542 l 508 578 q 493 501 503 542 l 357 0 l 226 0 z "},"x":{"ha":682,"x_min":13,"x_max":669,"o":"m 13 0 l 269 358 l 31 694 l 169 694 l 301 497 q 342 426 335 446 l 343 426 q 382 497 353 450 l 507 694 l 651 694 l 417 350 l 669 0 l 529 0 l 381 214 q 342 285 347 265 l 340 285 q 299 214 335 265 l 153 0 l 13 0 z "},"y":{"ha":674,"x_min":7,"x_max":667,"o":"m 122 -278 q 57 -272 86 -278 l 57 -168 q 108 -171 75 -171 q 210 -141 172 -171 q 271 -43 247 -111 l 289 8 l 7 694 l 139 694 l 322 208 q 346 128 338 169 l 349 128 q 372 208 354 156 l 539 694 l 667 694 l 390 -44 q 278 -224 343 -171 q 122 -278 214 -278 z "},"z":{"ha":629,"x_min":42,"x_max":596,"o":"m 42 0 l 42 90 l 432 594 l 56 594 l 56 694 l 575 694 l 575 607 l 188 101 l 596 101 l 596 0 l 42 0 z "}}}
